HIERARCHY
ROOT Hips
{
 OFFSET 0.000000 0.000000 0.000000
 CHANNELS 6 Xposition Yposition Zposition Yrotation Xrotation Zrotation
 JOINT Chest
 {
  OFFSET 0.000000 9.581000 -0.001100
  CHANNELS 3 Yrotation Xrotation Zrotation
  JOINT Chest2
  {
   OFFSET 0.000000 9.561100 0.002200
   CHANNELS 3 Yrotation Xrotation Zrotation
   JOINT Chest3
   {
    OFFSET 0.000000 9.521100 0.000000
    CHANNELS 3 Yrotation Xrotation Zrotation
    JOINT Chest4
    {
     OFFSET 0.000000 9.511400 0.000000
     CHANNELS 3 Yrotation Xrotation Zrotation
     JOINT Neck
     {
      OFFSET 0.000000 14.375100 0.000000
      CHANNELS 3 Yrotation Xrotation Zrotation
      JOINT Head
      {
       OFFSET 0.000000 8.901200 0.004600
       CHANNELS 3 Yrotation Xrotation Zrotation
       End Site
       {
        OFFSET 0.000000 16.962200 0.002400
       }
      }
     }
     JOINT RightCollar
     {
      OFFSET -2.920100 9.518800 0.000000
      CHANNELS 3 Yrotation Xrotation Zrotation
      JOINT RightShoulder
      {
       OFFSET -13.664500 0.000000 0.000000
       CHANNELS 3 Yrotation Xrotation Zrotation
       JOINT RightElbow
       {
        OFFSET 0.000000 -29.999200 0.000000
        CHANNELS 3 Yrotation Xrotation Zrotation
        JOINT RightWrist
        {
         OFFSET 0.000000 -24.253600 0.000000
         CHANNELS 3 Yrotation Xrotation Zrotation
         End Site
         {
          OFFSET 0.000000 -17.918900 0.000000
         }
        }
       }
      }
     }
     JOINT LeftCollar
     {
      OFFSET 2.920100 9.518800 0.000000
      CHANNELS 3 Yrotation Xrotation Zrotation
      JOINT LeftShoulder
      {
       OFFSET 13.664500 0.000000 0.000000
       CHANNELS 3 Yrotation Xrotation Zrotation
       JOINT LeftElbow
       {
        OFFSET 0.000000 -29.999200 0.000000
        CHANNELS 3 Yrotation Xrotation Zrotation
        JOINT LeftWrist
        {
         OFFSET 0.000000 -24.253600 0.000000
         CHANNELS 3 Yrotation Xrotation Zrotation
         End Site
         {
          OFFSET 0.000000 -17.918900 0.000000
         }
        }
       }
      }
     }
    }
   }
  }
 }
 JOINT RightHip
 {
  OFFSET -7.797300 0.005300 0.000500
  CHANNELS 3 Yrotation Xrotation Zrotation
  JOINT RightKnee
  {
   OFFSET 0.000000 -40.663400 -0.000500
   CHANNELS 3 Yrotation Xrotation Zrotation
   JOINT RightAnkle
   {
    OFFSET 0.000000 -39.523700 -0.000900
    CHANNELS 3 Yrotation Xrotation Zrotation
    JOINT RightToe
    {
     OFFSET 0.000000 -6.418000 14.485300
     CHANNELS 3 Yrotation Xrotation Zrotation
     End Site
     {
      OFFSET 0.000000 -1.465200 6.326400
     }
    }
   }
  }
 }
 JOINT LeftHip
 {
  OFFSET 7.797300 0.005300 0.000500
  CHANNELS 3 Yrotation Xrotation Zrotation
  JOINT LeftKnee
  {
   OFFSET 0.000000 -40.663400 -0.000500
   CHANNELS 3 Yrotation Xrotation Zrotation
   JOINT LeftAnkle
   {
    OFFSET 0.000000 -39.523700 -0.000900
    CHANNELS 3 Yrotation Xrotation Zrotation
    JOINT LeftToe
    {
     OFFSET 0.000000 -6.418000 14.485300
     CHANNELS 3 Yrotation Xrotation Zrotation
     End Site
     {
      OFFSET 0.000000 -1.465200 6.326400
     }
    }
   }
  }
 }
}
MOTION
Frames: 6
Frame Time: 0.008333
-14.640548 126.911998 24.006234 -168.277177 -49.889804 -3.269634 -2.604178 25.401271 -0.692158 -0.390614 4.072330 -0.048736 -0.615683 6.564895 -0.047396 -2.088817 20.976113 -0.479312 1.510015 17.046341 -0.281616 1.648582 -7.810916 -0.637739 0.844897 3.060123 2.336175 0.065615 -9.859478 -12.150266 -76.514627 -56.165763 130.562450 -1.756277 -0.302012 2.957234 -9.870395 -1.513610 -0.958636 -6.448811 -9.081145 13.945285 57.484837 -53.787369 -109.227519 -1.144761 -5.910692 -6.137354 -4.809883 -22.588766 -4.749571 -6.730433 78.305375 -5.815258 10.417721 -13.432497 1.894470 0.000132 -0.001445 0.000058 6.317266 6.013986 2.188789 128.848245 65.284697 148.531507 6.258676 13.482686 1.741814 0.009144 -0.007627 0.004051
-14.640576 126.912438 24.003590 -168.291902 -49.873251 -3.258742 -2.594756 25.395454 -0.683220 -0.383727 4.107944 -0.022413 -0.618634 6.542191 -0.060386 -2.079747 20.978743 -0.466253 1.571639 16.929118 -0.303191 1.717628 -7.936212 -0.674198 0.825552 3.065800 2.311347 0.105148 -9.695987 -12.022776 -76.572174 -56.172486 130.645045 -1.737908 -0.258829 2.908899 -9.856970 -1.505452 -0.920762 -6.462715 -8.919960 13.901565 57.612312 -53.811782 -109.350619 -1.125744 -5.906023 -6.105664 -4.811140 -22.610610 -4.761798 -6.757361 78.331354 -5.832341 10.466159 -13.481285 1.868756 0.002635 0.000785 0.001167 6.320657 5.999678 2.184494 128.850631 65.283939 148.530464 6.270715 13.497247 1.710518 0.007575 -0.007459 0.003356
-14.640599 126.910750 24.002789 -168.323312 -49.840961 -3.233498 -2.575762 25.372825 -0.674910 -0.377649 4.118578 -0.015234 -0.619390 6.538312 -0.060139 -2.072926 20.980627 -0.455888 1.636650 16.822417 -0.321217 1.781829 -8.055393 -0.710419 0.811897 3.087047 2.287879 0.146800 -9.533490 -11.878356 -76.631976 -56.179434 130.714080 -1.715669 -0.217299 2.854690 -9.834029 -1.488097 -0.878199 -6.483366 -8.769719 13.854815 57.721495 -53.826702 -109.458950 -1.102012 -5.916237 -6.036908 -4.803614 -22.645489 -4.759816 -6.752224 78.345052 -5.827799 10.461955 -13.542671 1.854003 0.000792 -0.000081 0.000351 6.326311 5.973753 2.169248 128.854479 65.284245 148.527374 6.291720 13.517775 1.656850 0.004434 -0.003056 0.001964
-14.640164 126.910311 24.000887 -168.338830 -49.818021 -3.225062 -2.558225 25.370312 -0.654143 -0.375875 4.118696 -0.015684 -0.626594 6.523082 -0.066976 -2.070582 20.981230 -0.452126 1.715330 16.732938 -0.331076 1.841498 -8.166915 -0.745438 0.817096 3.154175 2.263058 0.179292 -9.394189 -11.702595 -76.699593 -56.194076 130.774200 -1.687488 -0.172294 2.788289 -9.796584 -1.454138 -0.824391 -6.504084 -8.630945 13.801867 57.890491 -53.879391 -109.640073 -1.023247 -5.908238 -5.908144 -4.805062 -22.657705 -4.759717 -6.705764 78.346097 -5.783314 10.489344 -13.627743 1.834745 0.001154 -0.004527 0.000511 6.326134 5.957761 2.160807 128.853858 65.281115 148.524724 6.294844 13.520829 1.644045 0.005703 -0.003901 0.002527
-14.640131 126.910031 23.998929 -168.353471 -49.796619 -3.215626 -2.532503 25.390714 -0.625975 -0.384647 4.092799 -0.025235 -0.622461 6.526642 -0.060251 -2.058423 20.982194 -0.438568 1.770832 16.634702 -0.356005 1.896440 -8.271159 -0.778653 0.795287 3.142639 2.237950 0.213545 -9.177039 -11.516456 -76.784532 -56.219860 130.832209 -1.652666 -0.118431 2.702366 -9.778851 -1.437028 -0.777010 -6.519413 -8.501128 13.741336 58.039541 -53.931370 -109.805451 -0.944793 -5.906371 -5.746631 -4.805368 -22.679085 -4.759286 -6.733169 78.357973 -5.808900 10.504006 -13.668971 1.823383 0.000921 -0.004201 0.000408 6.324776 5.943965 2.149266 128.844715 65.278993 148.508142 6.303258 13.526562 1.640955 0.004157 -0.005862 0.001842
-14.639699 126.909688 23.997014 -168.361639 -49.774559 -3.213908 -2.509895 25.389765 -0.604024 -0.381314 4.092772 -0.022857 -0.598004 6.547550 -0.042576 -2.021670 20.983080 -0.408515 1.772697 16.520987 -0.389283 1.946501 -8.370123 -0.809677 0.714544 3.098534 2.212086 0.251173 -8.932242 -11.314873 -76.898072 -56.255541 130.897151 -1.609874 -0.056719 2.591665 -9.838814 -1.463284 -0.760162 -6.510785 -8.359596 13.703638 58.098051 -53.944119 -109.875559 -0.913419 -5.931635 -5.574165 -4.811131 -22.699797 -4.751216 -6.800257 78.366208 -5.875529 10.511267 -13.701664 1.817546 0.000548 -0.003279 0.000243 6.322195 5.934410 2.141735 128.845452 65.276712 148.506919 6.295039 13.502679 1.683106 0.008996 -0.010047 0.003985
